<svg t="1646187462937" class="icon" viewBox="0 0 1024 1024" version="1.1" xmlns="http://www.w3.org/2000/svg" p-id="2006" width="200" height="200"><path d="M204.8 204.8m-204.8 0a204.8 204.8 0 1 0 409.6 0 204.8 204.8 0 1 0-409.6 0Z" fill="#EBF2FC" p-id="2007"></path><path d="M819.2 204.8m-204.8 0a204.8 204.8 0 1 0 409.6 0 204.8 204.8 0 1 0-409.6 0Z" fill="#B5D2F3" p-id="2008"></path><path d="M819.2 819.2m-204.8 0a204.8 204.8 0 1 0 409.6 0 204.8 204.8 0 1 0-409.6 0Z" fill="#7FB0EA" p-id="2009"></path><path d="M204.8 819.2m-204.8 0a204.8 204.8 0 1 0 409.6 0 204.8 204.8 0 1 0-409.6 0Z" fill="#4A90E2" p-id="2010"></path></svg>