<?xml version="1.0" standalone="no"?><!DOCTYPE svg PUBLIC "-//W3C//DTD SVG 1.1//EN" "http://www.w3.org/Graphics/SVG/1.1/DTD/svg11.dtd"><svg t="1647851869330" class="icon" viewBox="0 0 1024 1024" version="1.1" xmlns="http://www.w3.org/2000/svg" p-id="1597" width="32" height="32" xmlns:xlink="http://www.w3.org/1999/xlink"><defs><style type="text/css">@font-face { font-family: feedback-iconfont; src: url("//at.alicdn.com/t/font_1031158_u69w8yhxdu.woff2?t=1630033759944") format("woff2"), url("//at.alicdn.com/t/font_1031158_u69w8yhxdu.woff?t=1630033759944") format("woff"), url("//at.alicdn.com/t/font_1031158_u69w8yhxdu.ttf?t=1630033759944") format("truetype"); }
</style></defs><path d="M952.529455 459.752727a34.909091 34.909091 0 0 0-49.361455 0l-21.085091 21.085091C860.625455 276.317091 687.220364 116.363636 477.090909 116.363636a400.570182 400.570182 0 0 0-48.686545 3.211637c-7.842909 0.930909-15.616 2.164364-23.342546 3.560727-4.701091 0.837818-9.402182 1.582545-14.010182 2.56-9.844364 2.164364-19.572364 4.654545-29.160727 7.540364-6.865455 2.024727-13.521455 4.398545-20.247273 6.749091-3.537455 1.28-7.121455 2.56-10.635636 3.93309-7.237818 2.792727-14.336 5.701818-21.364364 8.890182-1.489455 0.674909-2.978909 1.442909-4.468363 2.141091-15.592727 7.330909-30.650182 15.499636-45.079273 24.645818l-1.931636 1.163637a394.309818 394.309818 0 0 0-26.624 18.734545 411.322182 411.322182 0 0 0-54.551273 49.780364c-2.443636 2.653091-4.887273 5.259636-7.261091 7.982545A375.04 375.04 0 0 0 148.945455 283.461818a407.319273 407.319273 0 0 0-37.771637 62.557091c-1.000727 2.071273-2.141091 4.026182-3.118545 6.097455-0.232727 0.418909-0.279273 0.861091-0.465455 1.28A404.340364 404.340364 0 0 0 69.818182 523.636364C69.818182 748.218182 252.509091 930.909091 477.090909 930.909091c143.476364 0 273.687273-73.309091 348.299636-196.049455a34.909091 34.909091 0 0 0-59.671272-36.258909C703.883636 800.349091 595.991273 861.090909 477.090909 861.090909 291.025455 861.090909 139.636364 709.701818 139.636364 523.636364a335.127273 335.127273 0 0 1 32.907636-144.384A335.755636 335.755636 0 0 1 210.385455 317.672727c4.119273-5.352727 8.378182-10.565818 12.8-15.616l3.397818-3.746909a341.224727 341.224727 0 0 1 48.151272-44.101818l3.258182-2.443636a340.619636 340.619636 0 0 1 58.112-34.327273l1.908364-0.930909a313.320727 313.320727 0 0 1 26.391273-10.565818c5.771636-2.094545 11.52-4.096 17.408-5.841455 7.842909-2.327273 15.802182-4.421818 23.901091-6.167273 3.909818-0.861091 7.912727-1.466182 11.845818-2.187636a371.479273 371.479273 0 0 1 29.416727-4.049455c9.937455-0.930909 19.968-1.536 30.114909-1.536 169.378909 0 309.597091 125.556364 333.474909 288.395637l-14.801454-14.824727a34.909091 34.909091 0 1 0-49.361455 49.338181l78.382546 78.429091a34.932364 34.932364 0 0 0 49.338181 0l78.405819-78.429091a34.909091 34.909091 0 0 0 0-49.338181" fill="#707070" p-id="1598"></path></svg>